<mxfile host="app.diagrams.net" modified="2021-12-31T14:09:58.410Z" agent="5.0 (Windows NT 6.1; Win64; x64) AppleWebKit/537.36 (KHTML, like Gecko) Chrome/96.0.4664.110 Safari/537.36" etag="4nLnIkisQRvyyPefQJ-9" version="16.1.2" type="github">
  <diagram id="XsuqSf5ixS1CFncZ4B3i" name="第 1 页">
    <mxGraphModel dx="1422" dy="794" grid="1" gridSize="10" guides="1" tooltips="1" connect="1" arrows="1" fold="1" page="1" pageScale="1" pageWidth="827" pageHeight="1169" background="#ffffff" math="0" shadow="0">
      <root>
        <mxCell id="0" />
        <mxCell id="1" parent="0" />
        <mxCell id="1W_t99G61_w7l2rFibX5-1" style="edgeStyle=orthogonalEdgeStyle;rounded=0;orthogonalLoop=1;jettySize=auto;html=1;exitX=0.5;exitY=1;exitDx=0;exitDy=0;entryX=0.5;entryY=0;entryDx=0;entryDy=0;curved=1;" edge="1" parent="1" source="1W_t99G61_w7l2rFibX5-2" target="1W_t99G61_w7l2rFibX5-19">
          <mxGeometry relative="1" as="geometry">
            <mxPoint x="470" y="270" as="sourcePoint" />
          </mxGeometry>
        </mxCell>
        <mxCell id="1W_t99G61_w7l2rFibX5-57" style="edgeStyle=orthogonalEdgeStyle;curved=1;rounded=0;orthogonalLoop=1;jettySize=auto;html=1;exitX=0;exitY=0.5;exitDx=0;exitDy=0;entryX=0.5;entryY=0;entryDx=0;entryDy=0;fontFamily=Comic Sans MS;" edge="1" parent="1" source="1W_t99G61_w7l2rFibX5-2" target="1W_t99G61_w7l2rFibX5-38">
          <mxGeometry relative="1" as="geometry" />
        </mxCell>
        <mxCell id="1W_t99G61_w7l2rFibX5-2" value="" style="ellipse;whiteSpace=wrap;html=1;aspect=fixed;shadow=1;fillColor=#dae8fc;strokeColor=#6c8ebf;" vertex="1" parent="1">
          <mxGeometry x="480" y="200" width="40" height="40" as="geometry" />
        </mxCell>
        <mxCell id="1W_t99G61_w7l2rFibX5-3" value="" style="ellipse;whiteSpace=wrap;html=1;aspect=fixed;shadow=1;fillColor=#dae8fc;strokeColor=#6c8ebf;" vertex="1" parent="1">
          <mxGeometry x="640" y="400" width="40" height="40" as="geometry" />
        </mxCell>
        <mxCell id="1W_t99G61_w7l2rFibX5-4" value="&lt;font style=&quot;font-size: 15px&quot;&gt;not_hold_once[i-1]&lt;/font&gt;" style="text;html=1;strokeColor=none;fillColor=none;align=center;verticalAlign=middle;whiteSpace=wrap;rounded=0;shadow=1;fontFamily=Comic Sans MS;" vertex="1" parent="1">
          <mxGeometry x="420" y="160" width="160" height="40" as="geometry" />
        </mxCell>
        <mxCell id="1W_t99G61_w7l2rFibX5-5" value="&lt;font style=&quot;font-size: 15px&quot;&gt;not_hold[i]: 第i天结束&lt;b&gt;不持有股票&lt;/b&gt;时，&lt;span&gt;手中拥有的最大现金数&lt;br&gt;&lt;/span&gt;hold[i]: 第i天结束&lt;b&gt;持有股票&lt;/b&gt;时，手中拥有的最大现金数&lt;/font&gt;&lt;span&gt;&lt;br&gt;&lt;/span&gt;&lt;div class=&quot;okr-block-clipboard&quot;&gt;&lt;/div&gt;" style="text;html=1;strokeColor=none;fillColor=none;align=center;verticalAlign=middle;whiteSpace=wrap;rounded=0;shadow=1;fontFamily=Comic Sans MS;" vertex="1" parent="1">
          <mxGeometry x="360" y="80" width="440" height="80" as="geometry" />
        </mxCell>
        <mxCell id="1W_t99G61_w7l2rFibX5-6" style="edgeStyle=orthogonalEdgeStyle;curved=1;rounded=0;orthogonalLoop=1;jettySize=auto;html=1;exitX=0.5;exitY=1;exitDx=0;exitDy=0;fontFamily=Comic Sans MS;" edge="1" parent="1" source="1W_t99G61_w7l2rFibX5-8" target="1W_t99G61_w7l2rFibX5-12">
          <mxGeometry relative="1" as="geometry" />
        </mxCell>
        <mxCell id="1W_t99G61_w7l2rFibX5-7" style="edgeStyle=orthogonalEdgeStyle;curved=1;rounded=0;orthogonalLoop=1;jettySize=auto;html=1;exitX=0;exitY=0.5;exitDx=0;exitDy=0;entryX=0.5;entryY=0;entryDx=0;entryDy=0;" edge="1" parent="1" source="1W_t99G61_w7l2rFibX5-8" target="1W_t99G61_w7l2rFibX5-19">
          <mxGeometry relative="1" as="geometry" />
        </mxCell>
        <mxCell id="1W_t99G61_w7l2rFibX5-51" style="edgeStyle=orthogonalEdgeStyle;curved=1;rounded=0;orthogonalLoop=1;jettySize=auto;html=1;exitX=1;exitY=0.5;exitDx=0;exitDy=0;fontFamily=Comic Sans MS;entryX=0.5;entryY=0;entryDx=0;entryDy=0;" edge="1" parent="1" source="1W_t99G61_w7l2rFibX5-8" target="1W_t99G61_w7l2rFibX5-31">
          <mxGeometry relative="1" as="geometry">
            <mxPoint x="800" y="300" as="targetPoint" />
          </mxGeometry>
        </mxCell>
        <mxCell id="1W_t99G61_w7l2rFibX5-8" value="" style="ellipse;whiteSpace=wrap;html=1;aspect=fixed;shadow=1;fillColor=#f8cecc;strokeColor=#b85450;" vertex="1" parent="1">
          <mxGeometry x="640" y="200" width="40" height="40" as="geometry" />
        </mxCell>
        <mxCell id="1W_t99G61_w7l2rFibX5-9" value="&lt;font style=&quot;font-size: 15px&quot;&gt;&lt;span&gt;+prices[i]&lt;/span&gt;&lt;/font&gt;&lt;div class=&quot;okr-block-clipboard&quot;&gt;&lt;/div&gt;" style="text;html=1;strokeColor=none;fillColor=none;align=center;verticalAlign=middle;whiteSpace=wrap;rounded=0;shadow=1;fontFamily=Comic Sans MS;" vertex="1" parent="1">
          <mxGeometry x="660" y="240" width="80" height="30" as="geometry" />
        </mxCell>
        <mxCell id="1W_t99G61_w7l2rFibX5-10" value="&lt;font style=&quot;font-size: 15px&quot;&gt;not_hold_once[i]&lt;/font&gt;" style="text;html=1;strokeColor=none;fillColor=none;align=center;verticalAlign=middle;whiteSpace=wrap;rounded=0;shadow=1;fontFamily=Comic Sans MS;" vertex="1" parent="1">
          <mxGeometry x="600" y="440" width="120" height="40" as="geometry" />
        </mxCell>
        <mxCell id="1W_t99G61_w7l2rFibX5-11" style="edgeStyle=orthogonalEdgeStyle;curved=1;rounded=0;orthogonalLoop=1;jettySize=auto;html=1;exitX=0.5;exitY=1;exitDx=0;exitDy=0;entryX=0.5;entryY=0;entryDx=0;entryDy=0;fontFamily=Comic Sans MS;fontSize=15;" edge="1" parent="1" source="1W_t99G61_w7l2rFibX5-12" target="1W_t99G61_w7l2rFibX5-3">
          <mxGeometry relative="1" as="geometry" />
        </mxCell>
        <mxCell id="1W_t99G61_w7l2rFibX5-12" value="MAX" style="text;html=1;strokeColor=none;fillColor=none;align=center;verticalAlign=middle;whiteSpace=wrap;rounded=0;shadow=1;fontFamily=Comic Sans MS;fontSize=15;" vertex="1" parent="1">
          <mxGeometry x="630" y="320" width="60" height="30" as="geometry" />
        </mxCell>
        <mxCell id="1W_t99G61_w7l2rFibX5-13" value="" style="rounded=0;orthogonalLoop=1;jettySize=auto;html=1;exitX=1;exitY=0.5;exitDx=0;exitDy=0;entryX=0.5;entryY=0;entryDx=0;entryDy=0;edgeStyle=orthogonalEdgeStyle;curved=1;endArrow=none;" edge="1" parent="1" source="1W_t99G61_w7l2rFibX5-2" target="1W_t99G61_w7l2rFibX5-12">
          <mxGeometry relative="1" as="geometry">
            <mxPoint x="520" y="220" as="sourcePoint" />
            <mxPoint x="580" y="360" as="targetPoint" />
          </mxGeometry>
        </mxCell>
        <mxCell id="1W_t99G61_w7l2rFibX5-14" value="&lt;font style=&quot;font-size: 15px&quot;&gt;hold_once[i-1]&lt;/font&gt;" style="text;html=1;strokeColor=none;fillColor=none;align=center;verticalAlign=middle;whiteSpace=wrap;rounded=0;shadow=1;fontFamily=Comic Sans MS;" vertex="1" parent="1">
          <mxGeometry x="590" y="160" width="140" height="40" as="geometry" />
        </mxCell>
        <mxCell id="1W_t99G61_w7l2rFibX5-15" value="&lt;font style=&quot;font-size: 15px&quot;&gt;&lt;span&gt;-prices[i]&lt;/span&gt;&lt;/font&gt;&lt;div class=&quot;okr-block-clipboard&quot;&gt;&lt;/div&gt;" style="text;html=1;strokeColor=none;fillColor=none;align=center;verticalAlign=middle;whiteSpace=wrap;rounded=0;shadow=1;fontFamily=Comic Sans MS;" vertex="1" parent="1">
          <mxGeometry x="420" y="240" width="80" height="30" as="geometry" />
        </mxCell>
        <mxCell id="1W_t99G61_w7l2rFibX5-16" value="&lt;font style=&quot;font-size: 15px&quot;&gt;hold_once[i]&lt;/font&gt;" style="text;html=1;strokeColor=none;fillColor=none;align=center;verticalAlign=middle;whiteSpace=wrap;rounded=0;shadow=1;fontFamily=Comic Sans MS;" vertex="1" parent="1">
          <mxGeometry x="460" y="440" width="80" height="40" as="geometry" />
        </mxCell>
        <mxCell id="1W_t99G61_w7l2rFibX5-17" value="" style="ellipse;whiteSpace=wrap;html=1;aspect=fixed;shadow=1;fillColor=#f8cecc;strokeColor=#b85450;" vertex="1" parent="1">
          <mxGeometry x="480" y="400" width="40" height="40" as="geometry" />
        </mxCell>
        <mxCell id="1W_t99G61_w7l2rFibX5-18" style="edgeStyle=orthogonalEdgeStyle;curved=1;rounded=0;orthogonalLoop=1;jettySize=auto;html=1;exitX=0.5;exitY=1;exitDx=0;exitDy=0;entryX=0.5;entryY=0;entryDx=0;entryDy=0;fontFamily=Comic Sans MS;fontSize=15;" edge="1" parent="1" source="1W_t99G61_w7l2rFibX5-19" target="1W_t99G61_w7l2rFibX5-17">
          <mxGeometry relative="1" as="geometry" />
        </mxCell>
        <mxCell id="1W_t99G61_w7l2rFibX5-19" value="MAX" style="text;html=1;strokeColor=none;fillColor=none;align=center;verticalAlign=middle;whiteSpace=wrap;rounded=0;shadow=1;fontFamily=Comic Sans MS;fontSize=15;" vertex="1" parent="1">
          <mxGeometry x="470" y="320" width="60" height="30" as="geometry" />
        </mxCell>
        <mxCell id="1W_t99G61_w7l2rFibX5-20" value="&lt;font style=&quot;font-size: 12px&quot; face=&quot;Comic Sans MS&quot;&gt;&lt;font style=&quot;font-size: 12px&quot;&gt;&lt;b&gt;线索1&lt;/b&gt;：&lt;span&gt;最多只能完成两笔交易&lt;/span&gt;&lt;br&gt;&lt;b&gt;线索2&lt;/b&gt;：&lt;/font&gt;&lt;span style=&quot;color: rgb(33 , 40 , 53) ; background-color: rgb(255 , 255 , 255)&quot;&gt;你不能同时参与多笔交易&lt;/span&gt;&lt;/font&gt;" style="text;html=1;strokeColor=none;fillColor=none;align=center;verticalAlign=middle;whiteSpace=wrap;rounded=0;" vertex="1" parent="1">
          <mxGeometry x="440" y="40" width="280" height="40" as="geometry" />
        </mxCell>
        <mxCell id="1W_t99G61_w7l2rFibX5-23" value="" style="ellipse;whiteSpace=wrap;html=1;aspect=fixed;shadow=1;fillColor=#d80073;strokeColor=#A50040;fontColor=#ffffff;" vertex="1" parent="1">
          <mxGeometry x="780" y="400" width="40" height="40" as="geometry" />
        </mxCell>
        <mxCell id="1W_t99G61_w7l2rFibX5-28" value="&lt;font style=&quot;font-size: 15px&quot;&gt;&lt;span&gt;+prices[i]&lt;/span&gt;&lt;/font&gt;&lt;div class=&quot;okr-block-clipboard&quot;&gt;&lt;/div&gt;" style="text;html=1;strokeColor=none;fillColor=none;align=center;verticalAlign=middle;whiteSpace=wrap;rounded=0;shadow=1;fontFamily=Comic Sans MS;" vertex="1" parent="1">
          <mxGeometry x="374" y="200" width="80" height="30" as="geometry" />
        </mxCell>
        <mxCell id="1W_t99G61_w7l2rFibX5-29" value="&lt;span style=&quot;font-size: 15px&quot;&gt;hold_twice[i]&lt;/span&gt;" style="text;html=1;strokeColor=none;fillColor=none;align=center;verticalAlign=middle;whiteSpace=wrap;rounded=0;shadow=1;fontFamily=Comic Sans MS;" vertex="1" parent="1">
          <mxGeometry x="220" y="400" width="120" height="40" as="geometry" />
        </mxCell>
        <mxCell id="1W_t99G61_w7l2rFibX5-30" style="edgeStyle=orthogonalEdgeStyle;curved=1;rounded=0;orthogonalLoop=1;jettySize=auto;html=1;exitX=0.5;exitY=1;exitDx=0;exitDy=0;entryX=0.5;entryY=0;entryDx=0;entryDy=0;fontFamily=Comic Sans MS;fontSize=15;" edge="1" parent="1" source="1W_t99G61_w7l2rFibX5-31" target="1W_t99G61_w7l2rFibX5-23">
          <mxGeometry relative="1" as="geometry" />
        </mxCell>
        <mxCell id="1W_t99G61_w7l2rFibX5-31" value="MAX" style="text;html=1;strokeColor=none;fillColor=none;align=center;verticalAlign=middle;whiteSpace=wrap;rounded=0;shadow=1;fontFamily=Comic Sans MS;fontSize=15;" vertex="1" parent="1">
          <mxGeometry x="770" y="320" width="60" height="30" as="geometry" />
        </mxCell>
        <mxCell id="1W_t99G61_w7l2rFibX5-34" value="&lt;font style=&quot;font-size: 15px&quot;&gt;&lt;span&gt;-prices[i]&lt;/span&gt;&lt;/font&gt;&lt;div class=&quot;okr-block-clipboard&quot;&gt;&lt;/div&gt;" style="text;html=1;strokeColor=none;fillColor=none;align=center;verticalAlign=middle;whiteSpace=wrap;rounded=0;shadow=1;fontFamily=Comic Sans MS;" vertex="1" parent="1">
          <mxGeometry x="710" y="200" width="80" height="30" as="geometry" />
        </mxCell>
        <mxCell id="1W_t99G61_w7l2rFibX5-35" value="&lt;font style=&quot;font-size: 15px&quot;&gt;not_hold_twice[i]&lt;/font&gt;" style="text;html=1;strokeColor=none;fillColor=none;align=center;verticalAlign=middle;whiteSpace=wrap;rounded=0;shadow=1;fontFamily=Comic Sans MS;" vertex="1" parent="1">
          <mxGeometry x="840" y="400" width="120" height="40" as="geometry" />
        </mxCell>
        <mxCell id="1W_t99G61_w7l2rFibX5-36" value="" style="ellipse;whiteSpace=wrap;html=1;aspect=fixed;shadow=1;fillColor=#1ba1e2;strokeColor=#006EAF;fontColor=#ffffff;" vertex="1" parent="1">
          <mxGeometry x="340" y="400" width="40" height="40" as="geometry" />
        </mxCell>
        <mxCell id="1W_t99G61_w7l2rFibX5-37" style="edgeStyle=orthogonalEdgeStyle;curved=1;rounded=0;orthogonalLoop=1;jettySize=auto;html=1;exitX=0.5;exitY=1;exitDx=0;exitDy=0;entryX=0.5;entryY=0;entryDx=0;entryDy=0;fontFamily=Comic Sans MS;fontSize=15;" edge="1" parent="1" source="1W_t99G61_w7l2rFibX5-38" target="1W_t99G61_w7l2rFibX5-36">
          <mxGeometry relative="1" as="geometry" />
        </mxCell>
        <mxCell id="1W_t99G61_w7l2rFibX5-38" value="MAX" style="text;html=1;strokeColor=none;fillColor=none;align=center;verticalAlign=middle;whiteSpace=wrap;rounded=0;shadow=1;fontFamily=Comic Sans MS;fontSize=15;" vertex="1" parent="1">
          <mxGeometry x="330" y="320" width="60" height="30" as="geometry" />
        </mxCell>
        <mxCell id="1W_t99G61_w7l2rFibX5-39" value="&lt;font face=&quot;Comic Sans MS&quot;&gt;买入操作&lt;/font&gt;" style="text;html=1;strokeColor=none;fillColor=none;align=center;verticalAlign=middle;whiteSpace=wrap;rounded=0;" vertex="1" parent="1">
          <mxGeometry x="430" y="270" width="60" height="30" as="geometry" />
        </mxCell>
        <mxCell id="1W_t99G61_w7l2rFibX5-40" value="&lt;font face=&quot;Comic Sans MS&quot;&gt;卖出操作&lt;/font&gt;" style="text;html=1;strokeColor=none;fillColor=none;align=center;verticalAlign=middle;whiteSpace=wrap;rounded=0;" vertex="1" parent="1">
          <mxGeometry x="670" y="270" width="60" height="30" as="geometry" />
        </mxCell>
        <mxCell id="1W_t99G61_w7l2rFibX5-43" style="edgeStyle=orthogonalEdgeStyle;rounded=0;orthogonalLoop=1;jettySize=auto;html=1;exitX=0;exitY=0.5;exitDx=0;exitDy=0;curved=1;" edge="1" parent="1" source="1W_t99G61_w7l2rFibX5-41" target="1W_t99G61_w7l2rFibX5-31">
          <mxGeometry relative="1" as="geometry" />
        </mxCell>
        <mxCell id="1W_t99G61_w7l2rFibX5-41" value="" style="ellipse;whiteSpace=wrap;html=1;aspect=fixed;shadow=1;fillColor=#d80073;strokeColor=#A50040;fontColor=#ffffff;" vertex="1" parent="1">
          <mxGeometry x="920" y="200" width="40" height="40" as="geometry" />
        </mxCell>
        <mxCell id="1W_t99G61_w7l2rFibX5-42" value="&lt;span style=&quot;font-size: 15px&quot;&gt;hold_twice[i-1]&lt;/span&gt;" style="text;html=1;strokeColor=none;fillColor=none;align=center;verticalAlign=middle;whiteSpace=wrap;rounded=0;shadow=1;fontFamily=Comic Sans MS;" vertex="1" parent="1">
          <mxGeometry x="160" y="160" width="120" height="40" as="geometry" />
        </mxCell>
        <mxCell id="1W_t99G61_w7l2rFibX5-44" value="&lt;font style=&quot;font-size: 15px&quot;&gt;not_hold_twice[i-1]&lt;/font&gt;" style="text;html=1;strokeColor=none;fillColor=none;align=center;verticalAlign=middle;whiteSpace=wrap;rounded=0;shadow=1;fontFamily=Comic Sans MS;" vertex="1" parent="1">
          <mxGeometry x="870" y="160" width="140" height="40" as="geometry" />
        </mxCell>
        <mxCell id="1W_t99G61_w7l2rFibX5-46" style="edgeStyle=orthogonalEdgeStyle;curved=1;rounded=0;orthogonalLoop=1;jettySize=auto;html=1;exitX=1;exitY=0.5;exitDx=0;exitDy=0;entryX=0.5;entryY=0;entryDx=0;entryDy=0;" edge="1" parent="1" source="1W_t99G61_w7l2rFibX5-45" target="1W_t99G61_w7l2rFibX5-38">
          <mxGeometry relative="1" as="geometry" />
        </mxCell>
        <mxCell id="1W_t99G61_w7l2rFibX5-45" value="" style="ellipse;whiteSpace=wrap;html=1;aspect=fixed;shadow=1;fillColor=#1ba1e2;strokeColor=#006EAF;fontColor=#ffffff;" vertex="1" parent="1">
          <mxGeometry x="200" y="200" width="40" height="40" as="geometry" />
        </mxCell>
        <mxCell id="1W_t99G61_w7l2rFibX5-47" value="&lt;font face=&quot;Comic Sans MS&quot;&gt;卖出操作&lt;/font&gt;" style="text;html=1;strokeColor=none;fillColor=none;align=center;verticalAlign=middle;whiteSpace=wrap;rounded=0;" vertex="1" parent="1">
          <mxGeometry x="354" y="220" width="60" height="30" as="geometry" />
        </mxCell>
        <mxCell id="1W_t99G61_w7l2rFibX5-48" value="&lt;font face=&quot;Comic Sans MS&quot;&gt;买入操作&lt;/font&gt;" style="text;html=1;strokeColor=none;fillColor=none;align=center;verticalAlign=middle;whiteSpace=wrap;rounded=0;" vertex="1" parent="1">
          <mxGeometry x="750" y="220" width="60" height="30" as="geometry" />
        </mxCell>
      </root>
    </mxGraphModel>
  </diagram>
</mxfile>
